<mxfile host="app.diagrams.net" modified="2023-03-08T11:17:15.774Z" agent="5.0 (Linux; Android 11; M2011J18C) AppleWebKit/537.36 (KHTML, like Gecko) Chrome/110.0.0.0 Safari/537.36" etag="E-ljhnZ7fUjEYY0Y-A61" version="21.0.2" type="github">
  <diagram name="第 1 页" id="RVbpS2RVIww2sCraam_8">
    <mxGraphModel dx="403" dy="1179" grid="0" gridSize="10" guides="1" tooltips="1" connect="1" arrows="1" fold="1" page="0" pageScale="1" pageWidth="827" pageHeight="1169" math="0" shadow="0">
      <root>
        <mxCell id="0" />
        <mxCell id="1" parent="0" />
        <mxCell id="53HV_6M2GzXSDBLLH_Rl-1" value="" style="rounded=0;whiteSpace=wrap;html=1;fontSize=16;" parent="1" vertex="1">
          <mxGeometry x="1" y="171" width="160" height="80" as="geometry" />
        </mxCell>
        <mxCell id="53HV_6M2GzXSDBLLH_Rl-2" value="" style="ellipse;whiteSpace=wrap;html=1;fontSize=16;" parent="1" vertex="1">
          <mxGeometry x="93" y="-83" width="200" height="209" as="geometry" />
        </mxCell>
      </root>
    </mxGraphModel>
  </diagram>
</mxfile>
